<svg width="25" height="25" viewBox="0 0 25 25" fill="none" xmlns="http://www.w3.org/2000/svg">
<path fill-rule="evenodd" clip-rule="evenodd" d="M6.5 4.92285C4.29086 4.92285 2.5 6.71371 2.5 8.92285V20.9229H14.5C18.9183 20.9229 22.5 17.3411 22.5 12.9229V11.9229C22.5 8.05686 19.366 4.92285 15.5 4.92285H6.5ZM9.77274 9.04216C9.77274 9.46922 10.1189 9.81542 10.546 9.81542C10.973 9.81542 11.3192 9.46922 11.3192 9.04216C11.3192 8.61511 10.973 8.26891 10.546 8.26891C10.1189 8.26891 9.77274 8.61511 9.77274 9.04216ZM14.5669 9.19664C14.1398 9.19664 13.7936 8.85044 13.7936 8.42338C13.7936 7.99632 14.1398 7.65012 14.5669 7.65012C14.994 7.65012 15.3402 7.99632 15.3402 8.42338C15.3402 8.85044 14.994 9.19664 14.5669 9.19664ZM16.6047 10.5408C15.8414 10.6134 15.2814 11.2909 15.3539 12.0543C15.4264 12.8176 16.104 13.3776 16.8674 13.3051L17.7231 13.2238C18.4865 13.1513 19.0465 12.4737 18.974 11.7104C18.9014 10.947 18.2238 10.387 17.4605 10.4595L16.6047 10.5408Z" fill="CurrentColor"/>
</svg>
