<svg width="25" height="25" viewBox="0 0 25 25" fill="none" xmlns="http://www.w3.org/2000/svg">
<path d="M12.0153 11.2933C14.7694 11.0275 15.1736 12.9588 16.8201 14.4847C18.0007 15.5788 19.6501 16.1226 20.4491 17.611C21.4709 19.5142 20.4354 21.738 18.2094 21.9016C16.194 22.0498 13.9826 21.3626 11.905 21.4296C9.63854 21.5027 5.04758 23.1017 4.28956 19.8883C3.57913 16.8769 6.54618 16.0396 8.21673 14.4847C9.39121 13.3915 10.2401 11.4644 12.0153 11.2933Z" fill="CurrentColor"/>
<path d="M9.00398 3.94618C12.7111 3.47928 12.9655 10.1762 9.36862 10.2535C6.04871 10.3248 5.76746 4.35401 9.00398 3.94618Z" fill="CurrentColor"/>
<path d="M15.3531 3.94747C18.4327 3.57714 19.3853 8.52271 16.7749 9.94732C14.8688 10.9875 13.1346 9.18275 13.0131 7.32593C12.9198 5.90086 13.8031 4.13405 15.3531 3.94747Z" fill="CurrentColor"/>
<path d="M19.6795 9.18851C22.981 8.93209 23.5944 13.7877 20.397 14.3938C16.7539 15.0838 16.0392 9.47118 19.6795 9.18851Z" fill="CurrentColor"/>
<path d="M4.86761 9.18832C8.16443 8.88455 8.85413 13.7968 5.59406 14.4025C2.00797 15.0691 1.2476 9.52208 4.86761 9.18832Z" fill="CurrentColor"/>
</svg>
