<svg width="24" height="25" viewBox="0 0 24 25" fill="none" xmlns="http://www.w3.org/2000/svg">
<path d="M11.7778 12.0525C13.0547 12.0525 14.2794 11.5452 15.1824 10.6423C16.0853 9.7393 16.5926 8.51463 16.5926 7.23767C16.5926 5.9607 16.0853 4.73603 15.1824 3.83308C14.2794 2.93013 13.0547 2.42285 11.7778 2.42285C10.5008 2.42285 9.27614 2.93013 8.37319 3.83308C7.47024 4.73603 6.96296 5.9607 6.96296 7.23767C6.96296 8.51463 7.47024 9.7393 8.37319 10.6423C9.27614 11.5452 10.5008 12.0525 11.7778 12.0525ZM4 16.4969C4 15.7111 4.31217 14.9575 4.86783 14.4018C5.42349 13.8461 6.17714 13.534 6.96296 13.534H16.5926C17.3784 13.534 18.1321 13.8461 18.6877 14.4018C19.2434 14.9575 19.5556 15.7111 19.5556 16.4969C19.5556 16.4969 19.5556 22.4229 11.7778 22.4229C4 22.4229 4 16.4969 4 16.4969Z" fill="CurrentColor"/>
</svg>
